<?xml version="1.0" encoding="UTF-8"?>
<svg id="Layer_2" xmlns="http://www.w3.org/2000/svg" viewBox="0 0 1600 1600">
  <defs>
    <style>
      .cls-1 {
        fill: #fff;
      }

      .cls-2 {
        fill: red;
      }
    </style>
  </defs>
  <g>
    <path d="M168.48,318.77v962.46h1263.04V318.77H168.48ZM1370.79,1220.5H229.21V379.5h1141.58v841Z"/>
    <polygon points="1370.79 1009.15 1370.79 1065.06 1357.4 1017.42 1370.79 1009.15"/>
    <polygon points="242.59 582.58 229.21 590.85 229.21 534.94 242.59 582.58"/>
  </g>
  <g>
    <rect class="cls-1" x="198.84" y="349.13" width="1202.31" height="901.74" transform="translate(251.5 1789.52) rotate(-106)"/>
    <path d="M1370.79,1065.06l-13.39-47.64-16.7-59.45-162.51-578.47-17.07-60.73-9.17-32.67-63.44-225.8L168.48,318.77l60.73,216.17,13.38,47.64,16.7,59.45,162.51,578.47,17.06,60.73,9.18,32.67,63.44,225.81,920.04-258.48-60.73-216.17ZM702.54,1421.74l-149.42,42.85-3.52-12.28-49.06-171.08-17.41-60.73-174.69-609.19-16.9-58.95-49.57-172.86-3.52-12.28,168.98-48.45,490.01-140.5,149.44-42.85,3.52,12.27,49.06,171.08,17.41,60.73,174.69,609.18,16.9,58.96,49.57,172.86,3.52,12.28-168.97,48.45-490.04,140.51Z"/>
  </g>
  <g>
    <path class="cls-2" d="M1431.52,615.84l-60.73-98.36-85.19-137.98-37.5-60.73-159.59-258.47-95.54,58.99-95.53,58.98-227.56,140.5-98.36,60.73-279.98,172.86-26.83,16.57-22.12,13.65-13.38,8.27-60.73,37.49L9.42,726.55l159.06,257.62,60.73,98.36,85.18,137.97,37.5,60.73,159.59,258.48,95.53-58.98h.01s95.52-58.99,95.52-58.99l227.58-140.51,98.36-60.73,279.98-172.86,26.83-16.57,22.11-13.65,13.39-8.27,60.73-37.49,159.06-98.21-159.06-257.61ZM1370.79,939.17l-30.09,18.8-22.36,13.98-26.78,16.73-370.99,231.82-97.19,60.73-273.78,171.08-10.84,6.77-34.76-55.63-55.96-89.55-20.41-32.67-37.95-60.73-160.47-256.82-60.73-97.19-75.37-120.62,75.37-47.1,60.73-37.94,30.08-18.8,22.37-13.98,26.78-16.74,370.98-231.81,97.19-60.73,273.79-171.08,10.83-6.77,34.77,55.63v.02s55.95,89.53,55.95,89.53l20.41,32.67,37.95,60.73,160.48,256.82,60.73,97.19,75.37,120.62-75.37,47.1-60.73,37.94Z"/>
    <polygon points="448.04 1313.9 427.63 1281.23 438.86 1281.23 448.04 1313.9"/>
    <polygon points="1172.36 318.77 1161.12 318.77 1151.95 286.1 1172.36 318.77"/>
  </g>
</svg>