<?xml version="1.0" encoding="UTF-8"?>
<svg id="Layer_3" xmlns="http://www.w3.org/2000/svg" viewBox="0 0 1600 384.06">
  <defs>
    <style>
      .cls-1 {
        fill: #fff;
      }

      .cls-2 {
        fill: red;
      }
    </style>
  </defs>
  <g>
    <path class="cls-1" d="M481.69,210.93v75.98h-13.08V97.41h45.72c19.47,0,34.36,4.51,44.66,13.54,10.31,9.03,15.46,22.22,15.46,39.58s-5.75,32.09-17.24,43.41c-11.5,11.32-27.6,16.98-48.3,16.98h-27.22ZM481.69,109.44v89.46h26.96c17.09,0,30.08-4.07,38.98-12.22,8.9-8.15,13.35-19.67,13.35-34.56,0-28.45-16.34-42.68-49.03-42.68h-30.26Z"/>
    <path class="cls-1" d="M619.11,117.5c-2.64,0-4.98-.97-7-2.91-2.03-1.94-3.04-4.4-3.04-7.4s1.03-5.26,3.11-7.07c2.07-1.8,4.38-2.71,6.94-2.71,2.73,0,5.13.88,7.2,2.64,2.07,1.76,3.11,4.14,3.11,7.14,0,2.82-1.01,5.24-3.04,7.27s-4.45,3.04-7.27,3.04ZM613.17,286.91v-135.31h12.16v135.31h-12.16Z"/>
    <path class="cls-1" d="M756.28,280.96c-10.04,6.17-22.02,9.25-35.94,9.25-18.41,0-33.26-6.32-44.53-18.96-11.28-12.64-16.92-29.18-16.92-49.62,0-21.49,6.34-39.09,19.03-52.79,12.69-13.7,28.98-20.55,48.89-20.55,10.31,0,20.3,2.11,30,6.34v13.74c-9.69-5.99-20.31-8.99-31.85-8.99-15.86,0-28.72,5.71-38.59,17.11-9.87,11.41-14.8,26.19-14.8,44.33s4.51,31.63,13.54,42.29c9.03,10.66,20.95,15.99,35.75,15.99,13.57,0,25.37-3.61,35.41-10.83v12.69Z"/>
    <path class="cls-1" d="M880.76,286.91v-81.14c0-16.03-2.91-27.77-8.72-35.22-5.81-7.44-14.89-11.17-27.22-11.17-11.63,0-21.85,4.54-30.66,13.61-8.81,9.07-13.21,22.07-13.21,38.98v74.93h-12.16V86.58h12.16v89.33h.53c10.66-18.41,26.16-27.62,46.51-27.62,14.62,0,25.77,4.71,33.43,14.14,7.67,9.43,11.5,22.95,11.5,40.57v83.91h-12.16Z"/>
    <path class="cls-1" d="M1014.49,286.91v-27.09h-.53c-4.32,9.25-10.59,16.63-18.83,22.13-8.24,5.5-17.38,8.26-27.42,8.26-12.86,0-23.04-3.61-30.53-10.84-7.49-7.22-11.23-16.34-11.23-27.35,0-23.61,15.64-37.88,46.91-42.81l41.62-6.21c0-29.07-10.92-43.61-32.77-43.61-14.89,0-29.38,5.99-43.47,17.97v-14.67c5.02-3.96,11.83-7.35,20.42-10.17,8.59-2.82,16.67-4.23,24.25-4.23,13.92,0,24.69,4.32,32.31,12.95,7.62,8.63,11.43,21.19,11.43,37.66v88.01h-12.16ZM977.22,219.51c-14.19,2.03-24.14,5.31-29.87,9.84-5.73,4.54-8.59,11.92-8.59,22.13,0,8.02,2.66,14.62,7.99,19.82,5.33,5.2,12.75,7.8,22.27,7.8,13.04,0,23.87-4.82,32.51-14.47,8.63-9.65,12.95-22.09,12.95-37.33v-13.21l-37.26,5.42Z"/>
    <path class="cls-1" d="M1064.04,280.17v-14.93c13.57,8.63,27.31,12.95,41.23,12.95,14.8,0,26.03-3.06,33.7-9.18,7.67-6.12,11.5-14.69,11.5-25.7,0-9.69-2.58-17.42-7.73-23.19-5.15-5.77-16.32-13.63-33.5-23.59-19.21-11.19-31.36-20.55-36.47-28.08-5.11-7.53-7.67-16.23-7.67-26.1,0-13.39,5.2-24.75,15.59-34.09,10.39-9.34,24.27-14.01,41.63-14.01,11.28,0,22.55,1.9,33.83,5.68v13.74c-11.1-5.02-22.95-7.53-35.55-7.53s-23.06,3.26-30.59,9.78c-7.53,6.52-11.3,14.8-11.3,24.84s2.58,17.4,7.73,23.12c5.15,5.73,16.27,13.52,33.37,23.39,17.71,10.04,29.49,18.96,35.35,26.76,5.86,7.8,8.79,16.76,8.79,26.89,0,14.54-5.04,26.39-15.13,35.55-10.09,9.16-24.34,13.74-42.75,13.74-6.52,0-14.03-1.01-22.53-3.04-8.5-2.03-15-4.36-19.49-7Z"/>
    <path class="cls-1" d="M1289.48,280.96c-10.04,6.17-22.02,9.25-35.94,9.25-18.41,0-33.26-6.32-44.53-18.96-11.28-12.64-16.92-29.18-16.92-49.62,0-21.49,6.34-39.09,19.03-52.79,12.69-13.7,28.98-20.55,48.89-20.55,10.31,0,20.3,2.11,30,6.34v13.74c-9.69-5.99-20.31-8.99-31.85-8.99-15.86,0-28.72,5.71-38.59,17.11-9.87,11.41-14.8,26.19-14.8,44.33s4.51,31.63,13.54,42.29c9.03,10.66,20.95,15.99,35.75,15.99,13.57,0,25.37-3.61,35.41-10.83v12.69Z"/>
    <path class="cls-1" d="M1402.86,286.91v-27.09h-.53c-4.32,9.25-10.59,16.63-18.83,22.13-8.24,5.5-17.38,8.26-27.42,8.26-12.86,0-23.04-3.61-30.53-10.84-7.49-7.22-11.23-16.34-11.23-27.35,0-23.61,15.64-37.88,46.91-42.81l41.62-6.21c0-29.07-10.92-43.61-32.77-43.61-14.89,0-29.38,5.99-43.47,17.97v-14.67c5.02-3.96,11.83-7.35,20.42-10.17,8.59-2.82,16.67-4.23,24.25-4.23,13.92,0,24.69,4.32,32.31,12.95,7.62,8.63,11.43,21.19,11.43,37.66v88.01h-12.16ZM1365.59,219.51c-14.19,2.03-24.14,5.31-29.87,9.84-5.73,4.54-8.59,11.92-8.59,22.13,0,8.02,2.66,14.62,7.99,19.82,5.33,5.2,12.75,7.8,22.27,7.8,13.04,0,23.87-4.82,32.51-14.47,8.63-9.65,12.95-22.09,12.95-37.33v-13.21l-37.26,5.42Z"/>
    <path class="cls-1" d="M1547.69,286.91v-78.76c0-32.51-11.72-48.76-35.15-48.76-13.04,0-23.74,4.78-32.11,14.34-8.37,9.56-12.55,21.39-12.55,35.48v77.7h-12.16v-135.31h12.16v24.58h.53c9.87-18.59,25.28-27.88,46.25-27.88,14.62,0,25.81,4.87,33.56,14.6,7.75,9.74,11.63,23.63,11.63,41.69v82.33h-12.16Z"/>
  </g>
  <g>
    <g>
      <path class="cls-1" d="M70.9,96.9v190.26h249.68V96.9H70.9ZM308.57,275.16H82.9V108.91h225.67v166.25Z"/>
      <polygon class="cls-1" points="308.57 233.38 308.57 244.43 305.92 235.01 308.57 233.38"/>
      <polygon class="cls-1" points="85.55 149.05 82.9 150.69 82.9 139.63 85.55 149.05"/>
    </g>
    <g>
      <rect x="76.9" y="102.9" width="237.67" height="178.26" transform="translate(65.1 433.12) rotate(-106)"/>
      <path class="cls-1" d="M308.57,244.43l-2.65-9.42-3.3-11.75-32.13-114.35-3.37-12.01-1.81-6.46-12.54-44.64-181.87,51.09,12.01,42.73,2.64,9.42,3.3,11.75,32.12,114.35,3.37,12.01,1.81,6.46,12.54,44.64,181.87-51.1-12.01-42.73ZM176.47,314.94l-29.54,8.47-.7-2.43-9.7-33.82-3.44-12.01-34.53-120.42-3.34-11.65-9.8-34.17-.7-2.43,33.4-9.58,96.87-27.77,29.54-8.47.7,2.43,9.7,33.82,3.44,12.01,34.53,120.42,3.34,11.66,9.8,34.17.7,2.43-33.4,9.58-96.87,27.78Z"/>
    </g>
    <g>
      <path class="cls-2" d="M320.58,155.63l-12.01-19.44-16.84-27.28-7.41-12.01-31.55-51.09-18.89,11.66-18.88,11.66-44.98,27.77-19.44,12.01-55.35,34.17-5.3,3.28-4.37,2.7-2.64,1.63-12.01,7.41-31.44,19.41,31.44,50.93,12.01,19.44,16.84,27.27,7.41,12.01,31.55,51.1,18.88-11.66h0s18.88-11.66,18.88-11.66l44.99-27.78,19.44-12.01,55.35-34.17,5.3-3.28,4.37-2.7,2.65-1.63,12.01-7.41,31.44-19.41-31.44-50.92ZM308.57,219.54l-5.95,3.72-4.42,2.76-5.29,3.31-73.34,45.83-19.21,12.01-54.12,33.82-2.14,1.34-6.87-11-11.06-17.7-4.03-6.46-7.5-12.01-31.72-50.77-12.01-19.21-14.9-23.84,14.9-9.31,12.01-7.5,5.95-3.72,4.42-2.76,5.29-3.31,73.34-45.82,19.21-12.01,54.12-33.82,2.14-1.34,6.87,11h0s11.06,17.7,11.06,17.7l4.03,6.46,7.5,12.01,31.72,50.77,12.01,19.21,14.9,23.84-14.9,9.31-12.01,7.5Z"/>
      <polygon points="126.16 293.62 122.13 287.16 124.35 287.16 126.16 293.62"/>
      <polygon points="269.34 96.9 267.12 96.9 265.31 90.44 269.34 96.9"/>
    </g>
  </g>
</svg>